# xmcd
#
# Track frame offsets:
#	150
#	12995
#	24117
#	38950
#	52535
#	60192
#	76527
#	92797
#	108512
#	119937
#	131450
#	142625
#	154392
#	169977
#
# Disc length: 2388 seconds
# Revision: 1
# Processed by: cddbd v1.5.2PL0 Copyright (c) Steve Scherf et al.
# Submitted via: dBpowerAMP V12.0
#
DISCID=a309520e
DTITLE=Various Artist - Way Down Deep in My Soul: The Best of Sugar Hill Gospel, Vol. 2
DYEAR=1993
DGENRE=Gospel
TTITLE0=Doyle Lawson and Quicksilver - When We Meet to Part No More
TTITLE1=The Nashville Bluegrass Band - I'm Rollin' Through This Unfriendly World
TTITLE2=Osborne Brothers - Still Waters
TTITLE3=The Country Gentlemen - God's Coloring Book
TTITLE4=The Bluegrass Cardinals - Bring Him Your Talents
TTITLE5=The Seldom Scene - Life Is Like a Mountain Railway
TTITLE6=Doc Watson - What a Friend We Have in Jesus
TTITLE7=Hot Rize - Working on a Building
TTITLE8=The Bluegrass Cardinals - Way Down Deep in My Soul
TTITLE9=Chris Hillman - Turn Your Radio On
TTITLE10=Marty Stuart - Get in Line, Brother
TTITLE11=Tony Rice - Where the Soul of Man Never Dies
TTITLE12=Tim O'Brien - Pilgrim of Sorrow
TTITLE13=Doyle Lawson and Quicksilver - When the Sun of My Life Goes Down
EXTD=
EXTT0=
EXTT1=
EXTT2=
EXTT3=
EXTT4=
EXTT5=
EXTT6=
EXTT7=
EXTT8=
EXTT9=
EXTT10=
EXTT11=
EXTT12=
EXTT13=
PLAYORDER=
